<?xml version="1.0" encoding="UTF-8"?>
<svg width="44" height="44" viewBox="0 0 44 44" xmlns="http://www.w3.org/2000/svg">
  <!-- Balloon/chat outline -->
  <defs>
    <linearGradient id="faceGrad" x1="0" y1="0" x2="1" y2="1">
      <stop offset="0%" stop-color="#22d3ee"/>
      <stop offset="100%" stop-color="#38bdf8"/>
    </linearGradient>
    <filter id="shadow" x="-20%" y="-20%" width="140%" height="140%">
      <feDropShadow dx="0" dy="1.5" stdDeviation="1.5" flood-color="#000" flood-opacity="0.15"/>
    </filter>
  </defs>

  <!-- Outer balloon with small tail (neutral for both themes) -->
  <g filter="url(#shadow)">
    <path d="M8 10.5
             a9 9 0 0 1 9-9h10
             a9 9 0 0 1 9 9v10
             a9 9 0 0 1-9 9h-7.5
             l-4.8 3.8a1.4 1.4 0 0 1-2.25-1.1v-2.7
             a9 9 0 0 1-4.45-7.8z"
          transform="translate(0,1.5)"
          fill="#f8fafc" stroke="#0f172a" stroke-width="1.6" />
  </g>

  <!-- Robot face rounded rect -->
  <rect x="12.5" y="12.5" rx="7" ry="7" width="19" height="14" fill="url(#faceGrad)" stroke="#0f172a" stroke-width="1.2"/>

  <!-- Eyes -->
  <circle cx="19" cy="19.5" r="1.7" fill="#0f172a"/>
  <circle cx="25" cy="19.5" r="1.7" fill="#0f172a"/>

  <!-- Smile -->
  <path d="M18 22.7c1.6 1.6 6.4 1.6 8 0" fill="none" stroke="#0f172a" stroke-width="1.4" stroke-linecap="round"/>

  <!-- Small antenna dot -->
  <circle cx="22" cy="10.5" r="1.2" fill="#0f172a"/>
</svg>
